# xmcd
#
# Track frame offsets: 
#        150
#        16640
#        31075
#        45612
#        62410
#        78657
#        94935
#        108432
#        125420
#        142925
#
# Disc length: 2133 seconds
#
# Revision: 0
# Processed by: cddbd v1.5.1PL0 Copyright (c) Steve Scherf et al.
# Submitted via: ExactAudioCopy v0.95a5
#
DISCID=7308530a
DTITLE=Blackhawk - All American Country
DYEAR=2004
DGENRE=Country
TTITLE0=Every Once In  A While
TTITLE1=There You Have It
TTITLE2=Almost A Memory Now
TTITLE3=Down In Flames
TTITLE4=I Sure Can Smell The Rain
TTITLE5=Between Ragged And Wrong
TTITLE6=Goin' Down Fightin'
TTITLE7=Bad Love Gone Good
TTITLE8=Stone By Stone
TTITLE9=Will You Be There (In The Morning)
EXTD=
EXTT0=
EXTT1=
EXTT2=
EXTT3=
EXTT4=
EXTT5=
EXTT6=
EXTT7=
EXTT8=
EXTT9=
PLAYORDER=
